<svg width="66" height="156" viewBox="0 0 66 156" fill="none" xmlns="http://www.w3.org/2000/svg">
<g filter="url(#filter0_di_2_1169)">
<path d="M29.7218 15.4168C29.7218 17.2172 28.4811 18.7413 26.9049 19.6115C22.8949 21.8253 20.1789 26.0955 20.1788 31C20.1788 35.9045 22.895 40.174 26.905 42.3876C28.4812 43.2576 29.7218 44.7817 29.7218 46.5821L29.7218 113.266C29.7218 114.804 28.7729 116.147 27.6594 117.209C26.1311 118.666 25.1789 120.722 25.1788 123C25.1788 127.418 28.7605 131 33.1788 131C37.597 131 41.1788 127.418 41.1788 123C41.1787 120.497 40.0288 118.264 38.2288 116.797C36.8957 115.711 35.7218 114.256 35.7218 112.537L35.7218 47.0345C35.7218 45.1254 37.1095 43.5408 38.8284 42.7101C43.1782 40.6081 46.1788 36.1549 46.1788 31C46.1787 25.8452 43.1782 21.3912 38.8285 19.289C37.1095 18.4582 35.7218 16.8736 35.7218 14.9644V3C35.7218 1.34315 34.3786 0 32.7218 0C31.0649 0 29.7218 1.34315 29.7218 3V15.4168Z" fill="#131333" fill-opacity="0.7" shape-rendering="crispEdges"/>
<path d="M29.7218 15.4168C29.7218 17.2172 28.4811 18.7413 26.9049 19.6115C22.8949 21.8253 20.1789 26.0955 20.1788 31C20.1788 35.9045 22.895 40.174 26.905 42.3876C28.4812 43.2576 29.7218 44.7817 29.7218 46.5821L29.7218 113.266C29.7218 114.804 28.7729 116.147 27.6594 117.209C26.1311 118.666 25.1789 120.722 25.1788 123C25.1788 127.418 28.7605 131 33.1788 131C37.597 131 41.1788 127.418 41.1788 123C41.1787 120.497 40.0288 118.264 38.2288 116.797C36.8957 115.711 35.7218 114.256 35.7218 112.537L35.7218 47.0345C35.7218 45.1254 37.1095 43.5408 38.8284 42.7101C43.1782 40.6081 46.1788 36.1549 46.1788 31C46.1787 25.8452 43.1782 21.3912 38.8285 19.289C37.1095 18.4582 35.7218 16.8736 35.7218 14.9644V3C35.7218 1.34315 34.3786 0 32.7218 0C31.0649 0 29.7218 1.34315 29.7218 3V15.4168Z" fill="#3C3C3C" fill-opacity="0.2" shape-rendering="crispEdges"/>
</g>
<mask id="path-2-inside-1_2_1169" fill="white">
<path d="M23.1787 31.0004C23.1787 25.4775 27.6558 21.0004 33.1787 21.0004V21.0004C38.7015 21.0004 43.1787 25.4775 43.1787 31.0004V31.0004C43.1787 36.5232 38.7015 41.0004 33.1787 41.0004V41.0004C27.6558 41.0004 23.1787 36.5232 23.1787 31.0004V31.0004Z"/>
</mask>
<path d="M23.1787 31.0004C23.1787 25.4775 27.6558 21.0004 33.1787 21.0004V21.0004C38.7015 21.0004 43.1787 25.4775 43.1787 31.0004V31.0004C43.1787 36.5232 38.7015 41.0004 33.1787 41.0004V41.0004C27.6558 41.0004 23.1787 36.5232 23.1787 31.0004V31.0004Z" fill="#D37252"/>
<path d="M23.1787 31.0004C23.1787 25.4775 27.6558 21.0004 33.1787 21.0004V21.0004C38.7015 21.0004 43.1787 25.4775 43.1787 31.0004V31.0004C43.1787 36.5232 38.7015 41.0004 33.1787 41.0004V41.0004C27.6558 41.0004 23.1787 36.5232 23.1787 31.0004V31.0004Z" fill="url(#paint0_radial_2_1169)" style="mix-blend-mode:overlay"/>
<path d="M23.1787 30.0004C23.1787 24.4775 27.6558 20.0004 33.1787 20.0004C38.7015 20.0004 43.1787 24.4775 43.1787 30.0004V31.0004C43.1787 26.0298 38.7015 22.0004 33.1787 22.0004C27.6558 22.0004 23.1787 26.0298 23.1787 31.0004V30.0004ZM43.1787 32.0004C43.1787 37.5232 38.7015 42.0004 33.1787 42.0004C27.6558 42.0004 23.1787 37.5232 23.1787 32.0004V31.0004C23.1787 35.9709 27.6558 40.0004 33.1787 40.0004C38.7015 40.0004 43.1787 35.9709 43.1787 31.0004V32.0004ZM43.1787 31.0004M23.1787 41.0004V21.0004V41.0004M23.1787 41.0004M43.1787 21.0004V41.0004V21.0004" fill="white" fill-opacity="0.15" mask="url(#path-2-inside-1_2_1169)"/>
<g opacity="0.3" filter="url(#filter1_f_2_1169)">
<mask id="path-4-inside-2_2_1169" fill="white">
<path d="M20.8 123C20.8 116.373 26.1726 111 32.8 111V111C39.4274 111 44.8 116.373 44.8 123V123C44.8 129.628 39.4274 135 32.8 135V135C26.1726 135 20.8 129.628 20.8 123V123Z"/>
</mask>
<path d="M20.8 123C20.8 116.373 26.1726 111 32.8 111V111C39.4274 111 44.8 116.373 44.8 123V123C44.8 129.628 39.4274 135 32.8 135V135C26.1726 135 20.8 129.628 20.8 123V123Z" fill="#D37252"/>
<path d="M20.8 123C20.8 116.373 26.1726 111 32.8 111V111C39.4274 111 44.8 116.373 44.8 123V123C44.8 129.628 39.4274 135 32.8 135V135C26.1726 135 20.8 129.628 20.8 123V123Z" fill="url(#paint1_radial_2_1169)" style="mix-blend-mode:overlay"/>
<path d="M20.8 122C20.8 115.373 26.1726 110 32.8 110C39.4274 110 44.8 115.373 44.8 122V123C44.8 116.925 39.4274 112 32.8 112C26.1726 112 20.8 116.925 20.8 123V122ZM44.8 124C44.8 130.628 39.4274 136 32.8 136C26.1726 136 20.8 130.628 20.8 124V123C20.8 129.075 26.1726 134 32.8 134C39.4274 134 44.8 129.075 44.8 123V124ZM44.8 123M20.8 135V111V135M20.8 135M44.8 111V135V111" fill="white" fill-opacity="0.15" mask="url(#path-4-inside-2_2_1169)"/>
</g>
<mask id="path-6-inside-3_2_1169" fill="white">
<path d="M28.1787 123C28.1787 120.239 30.4173 118 33.1787 118V118C35.9401 118 38.1787 120.239 38.1787 123V123C38.1787 125.762 35.9401 128 33.1787 128V128C30.4173 128 28.1787 125.762 28.1787 123V123Z"/>
</mask>
<path d="M28.1787 123C28.1787 120.239 30.4173 118 33.1787 118V118C35.9401 118 38.1787 120.239 38.1787 123V123C38.1787 125.762 35.9401 128 33.1787 128V128C30.4173 128 28.1787 125.762 28.1787 123V123Z" fill="#D37252"/>
<path d="M28.1787 123C28.1787 120.239 30.4173 118 33.1787 118V118C35.9401 118 38.1787 120.239 38.1787 123V123C38.1787 125.762 35.9401 128 33.1787 128V128C30.4173 128 28.1787 125.762 28.1787 123V123Z" fill="url(#paint2_radial_2_1169)" style="mix-blend-mode:overlay"/>
<path d="M28.1787 122C28.1787 119.239 30.4173 117 33.1787 117C35.9401 117 38.1787 119.239 38.1787 122V123C38.1787 120.791 35.9401 119 33.1787 119C30.4173 119 28.1787 120.791 28.1787 123V122ZM38.1787 124C38.1787 126.762 35.9401 129 33.1787 129C30.4173 129 28.1787 126.762 28.1787 124V123C28.1787 125.21 30.4173 127 33.1787 127C35.9401 127 38.1787 125.21 38.1787 123V124ZM38.1787 123M28.1787 128V118V128M28.1787 128M38.1787 118V128V118" fill="white" fill-opacity="0.15" mask="url(#path-6-inside-3_2_1169)"/>
<g filter="url(#filter2_f_2_1169)">
<path d="M30.1786 64.0004C30.1786 62.3435 31.5218 61.0004 33.1786 61.0004V61.0004C34.8355 61.0004 36.1786 62.3435 36.1786 64.0004V89.0004C36.1786 90.6572 34.8355 92.0004 33.1786 92.0004V92.0004C31.5218 92.0004 30.1786 90.6572 30.1786 89.0004V64.0004Z" fill="#DE854A"/>
</g>
<mask id="path-9-inside-4_2_1169" fill="white">
<path d="M31.1786 66.5004C31.1786 65.6719 31.8502 65.0004 32.6786 65.0004V65.0004C33.5071 65.0004 34.1786 65.6719 34.1786 66.5004V83.5004C34.1786 84.3288 33.5071 85.0004 32.6786 85.0004V85.0004C31.8502 85.0004 31.1786 84.3288 31.1786 83.5004V66.5004Z"/>
</mask>
<path d="M31.1786 66.5004C31.1786 65.6719 31.8502 65.0004 32.6786 65.0004V65.0004C33.5071 65.0004 34.1786 65.6719 34.1786 66.5004V83.5004C34.1786 84.3288 33.5071 85.0004 32.6786 85.0004V85.0004C31.8502 85.0004 31.1786 84.3288 31.1786 83.5004V66.5004Z" fill="#EB9256"/>
<path d="M31.1786 66.5004C31.1786 65.6719 31.8502 65.0004 32.6786 65.0004V65.0004C33.5071 65.0004 34.1786 65.6719 34.1786 66.5004V83.5004C34.1786 84.3288 33.5071 85.0004 32.6786 85.0004V85.0004C31.8502 85.0004 31.1786 84.3288 31.1786 83.5004V66.5004Z" fill="url(#paint3_radial_2_1169)" fill-opacity="0.6" style="mix-blend-mode:overlay"/>
<path d="M31.1786 66.5004C31.1786 65.6719 31.8502 65.0004 32.6786 65.0004V65.0004C33.5071 65.0004 34.1786 65.6719 34.1786 66.5004V83.5004C34.1786 84.3288 33.5071 85.0004 32.6786 85.0004V85.0004C31.8502 85.0004 31.1786 84.3288 31.1786 83.5004V66.5004Z" fill="url(#paint4_radial_2_1169)" fill-opacity="0.2"/>
<path d="M31.1786 65.5004C31.1786 64.6719 31.8502 64.0004 32.6786 64.0004C33.5071 64.0004 34.1786 64.6719 34.1786 65.5004V66.5004C34.1786 66.2242 33.5071 66.0004 32.6786 66.0004C31.8502 66.0004 31.1786 66.2242 31.1786 66.5004V65.5004ZM34.1786 84.5004C34.1786 85.3288 33.5071 86.0004 32.6786 86.0004C31.8502 86.0004 31.1786 85.3288 31.1786 84.5004V83.5004C31.1786 83.7765 31.8502 84.0004 32.6786 84.0004C33.5071 84.0004 34.1786 83.7765 34.1786 83.5004V84.5004ZM34.1786 83.5004M31.1786 85.0004V65.0004V85.0004M31.1786 85.0004M34.1786 65.0004V85.0004V65.0004" fill="white" fill-opacity="0.15" mask="url(#path-9-inside-4_2_1169)"/>
<defs>
<filter id="filter0_di_2_1169" x="18.1788" y="0" width="28" height="133" filterUnits="userSpaceOnUse" color-interpolation-filters="sRGB">
<feFlood flood-opacity="0" result="BackgroundImageFix"/>
<feColorMatrix in="SourceAlpha" type="matrix" values="0 0 0 0 0 0 0 0 0 0 0 0 0 0 0 0 0 0 127 0" result="hardAlpha"/>
<feOffset dx="-1" dy="1"/>
<feGaussianBlur stdDeviation="0.5"/>
<feComposite in2="hardAlpha" operator="out"/>
<feColorMatrix type="matrix" values="0 0 0 0 1 0 0 0 0 1 0 0 0 0 1 0 0 0 0.08 0"/>
<feBlend mode="normal" in2="BackgroundImageFix" result="effect1_dropShadow_2_1169"/>
<feBlend mode="normal" in="SourceGraphic" in2="effect1_dropShadow_2_1169" result="shape"/>
<feColorMatrix in="SourceAlpha" type="matrix" values="0 0 0 0 0 0 0 0 0 0 0 0 0 0 0 0 0 0 127 0" result="hardAlpha"/>
<feOffset dx="-1"/>
<feGaussianBlur stdDeviation="1.5"/>
<feComposite in2="hardAlpha" operator="arithmetic" k2="-1" k3="1"/>
<feColorMatrix type="matrix" values="0 0 0 0 0.00547059 0 0 0 0 0.0187459 0 0 0 0 0.116098 0 0 0 0.31 0"/>
<feBlend mode="normal" in2="shape" result="effect2_innerShadow_2_1169"/>
</filter>
<filter id="filter1_f_2_1169" x="1.90735e-05" y="90.2002" width="65.6" height="65.6" filterUnits="userSpaceOnUse" color-interpolation-filters="sRGB">
<feFlood flood-opacity="0" result="BackgroundImageFix"/>
<feBlend mode="normal" in="SourceGraphic" in2="BackgroundImageFix" result="shape"/>
<feGaussianBlur stdDeviation="10.4" result="effect1_foregroundBlur_2_1169"/>
</filter>
<filter id="filter2_f_2_1169" x="13.4786" y="44.3004" width="39.4" height="64.4" filterUnits="userSpaceOnUse" color-interpolation-filters="sRGB">
<feFlood flood-opacity="0" result="BackgroundImageFix"/>
<feBlend mode="normal" in="SourceGraphic" in2="BackgroundImageFix" result="shape"/>
<feGaussianBlur stdDeviation="8.35" result="effect1_foregroundBlur_2_1169"/>
</filter>
<radialGradient id="paint0_radial_2_1169" cx="0" cy="0" r="1" gradientUnits="userSpaceOnUse" gradientTransform="translate(33.1787 35.0004) rotate(90) scale(18.6087 142.103)">
<stop stop-color="white" stop-opacity="0"/>
<stop offset="1" stop-color="white"/>
</radialGradient>
<radialGradient id="paint1_radial_2_1169" cx="0" cy="0" r="1" gradientUnits="userSpaceOnUse" gradientTransform="translate(32.8 127.8) rotate(90) scale(22.3304 170.524)">
<stop stop-color="white" stop-opacity="0"/>
<stop offset="1" stop-color="white"/>
</radialGradient>
<radialGradient id="paint2_radial_2_1169" cx="0" cy="0" r="1" gradientUnits="userSpaceOnUse" gradientTransform="translate(33.1787 125) rotate(90) scale(9.30435 71.0517)">
<stop stop-color="white" stop-opacity="0"/>
<stop offset="1" stop-color="white"/>
</radialGradient>
<radialGradient id="paint3_radial_2_1169" cx="0" cy="0" r="1" gradientUnits="userSpaceOnUse" gradientTransform="translate(32.6786 80.6525) rotate(90) scale(16.9565 19.423)">
<stop stop-color="white"/>
<stop offset="1" stop-color="white" stop-opacity="0"/>
</radialGradient>
<radialGradient id="paint4_radial_2_1169" cx="0" cy="0" r="1" gradientUnits="userSpaceOnUse" gradientTransform="translate(32.6786 81.0873) rotate(90) scale(6.08696 3.5)">
<stop stop-color="white"/>
<stop offset="1" stop-color="white" stop-opacity="0"/>
</radialGradient>
</defs>
</svg>
